<svg width="59" height="48" viewBox="0 0 59 48" fill="none" xmlns="http://www.w3.org/2000/svg">
<path fill-rule="evenodd" clip-rule="evenodd" d="M26.6671 2.7799C27.5652 0.0161144 31.4753 0.016115 32.3734 2.7799L36.0318 14.0378C36.4334 15.2738 37.5852 16.1106 38.8848 16.1106L50.7222 16.1111C53.6283 16.1112 54.8365 19.8299 52.4855 21.5381L42.9091 28.4963C41.8578 29.2602 41.4178 30.6142 41.8194 31.8502L45.4769 43.1084C46.3748 45.8723 43.2116 48.1705 40.8604 46.4625L31.2835 39.505C30.2321 38.7411 28.8084 38.7411 27.757 39.505L18.1801 46.4625C15.829 48.1705 12.6657 45.8723 13.5636 43.1084L17.2211 31.8502C17.6227 30.6142 17.1827 29.2602 16.1314 28.4963L6.55497 21.5381C4.20399 19.8299 5.41225 16.1112 8.31831 16.1111L20.1557 16.1106C21.4553 16.1106 22.6071 15.2738 23.0087 14.0378L26.6671 2.7799ZM51.3018 4.64148C52.1405 5.36032 52.2376 6.62292 51.5188 7.46157L47.6788 11.9416C46.9599 12.7802 45.6973 12.8773 44.8587 12.1585C44.02 11.4397 43.9229 10.1771 44.6418 9.33841L48.4818 4.85841C49.2006 4.01976 50.4632 3.92263 51.3018 4.64148ZM8.05165 35.2041C8.98338 34.6109 9.25777 33.3746 8.66451 32.4429C8.07125 31.5112 6.83501 31.2368 5.90328 31.83L0.926065 34.9992C-0.00566478 35.5924 -0.280051 36.8287 0.313207 37.7604C0.906464 38.6921 2.14271 38.9665 3.07444 38.3733L8.05165 35.2041ZM58.5845 38.4004C59.1778 37.4687 58.9034 36.2324 57.9717 35.6392L52.9945 32.47C52.0627 31.8768 50.8265 32.1512 50.2332 33.0829C49.64 34.0146 49.9143 35.2509 50.8461 35.8441L55.8233 39.0133C56.755 39.6065 57.9913 39.3321 58.5845 38.4004ZM6.04606 5.76413C5.11433 5.17088 4.83994 3.93463 5.4332 3.0029C6.02646 2.07117 7.2627 1.79679 8.19443 2.39004L13.1716 5.55917C14.1034 6.15243 14.3778 7.38867 13.7845 8.3204C13.1912 9.25213 11.955 9.52652 11.0233 8.93326L6.04606 5.76413Z" fill="url(#paint0_linear_26_9)"/>
<defs>
<linearGradient id="paint0_linear_26_9" x1="29.4491" y1="0.707062" x2="29.4491" y2="39" gradientUnits="userSpaceOnUse">
<stop stop-color="#378DE1"/>
<stop offset="0.5" stop-color="#4BA3D8"/>
<stop offset="1" stop-color="#C8A2C8"/>
</linearGradient>
</defs>
</svg>
