<svg width="318" height="78" viewBox="0 0 318 78" fill="none" xmlns="http://www.w3.org/2000/svg">
<path d="M5.12 62V17.2H32.448V22.704H11.2V35.824H28.096V41.328H11.2V56.496H33.024V62H5.12ZM38.779 62V30.64H43.259L44.411 36.656L42.171 35.696C44.283 33.3493 46.3417 31.8133 48.347 31.088C50.3737 30.3627 52.347 30 54.267 30C58.8537 30 62.1283 31.3227 64.091 33.968C66.075 36.6133 67.067 40.1973 67.067 44.72V62H61.307V44.72C61.307 41.392 60.6883 38.96 59.451 37.424C58.2137 35.888 56.1017 35.12 53.115 35.12C51.003 35.12 49.0617 35.5893 47.291 36.528C45.5417 37.4453 44.3897 38.9173 43.835 40.944L44.539 37.424V62H38.779ZM82.593 62.64C80.5663 62.64 78.9557 62.2773 77.761 61.552C76.5877 60.8053 75.745 59.856 75.233 58.704C74.721 57.552 74.465 56.3467 74.465 55.088V14H80.225V51.76C80.225 53.552 80.3423 54.896 80.577 55.792C80.8117 56.688 81.281 57.2853 81.985 57.584C82.7103 57.8827 83.809 58.032 85.281 58.032L84.449 62.64H82.593ZM89.654 62V30.64H95.414V62H89.654ZM89.654 23.6V17.2H95.414V23.6H89.654ZM115.889 78C113.03 78 110.47 77.648 108.209 76.944C105.969 76.24 104.198 75.1947 102.897 73.808C101.617 72.4213 100.977 70.704 100.977 68.656C100.977 66.9493 101.457 65.4773 102.417 64.24C103.398 63.024 104.731 62.0427 106.417 61.296C105.414 60.8053 104.646 60.2293 104.113 59.568C103.601 58.8853 103.345 58.1387 103.345 57.328C103.345 56.368 103.633 55.504 104.209 54.736C104.806 53.9467 105.755 53.296 107.057 52.784C105.307 51.696 103.963 50.2347 103.025 48.4C102.086 46.544 101.617 44.4853 101.617 42.224C101.617 39.9413 102.129 37.8827 103.153 36.048C104.177 34.192 105.649 32.72 107.569 31.632C109.51 30.544 111.835 30 114.545 30C115.995 30 117.361 30.2133 118.641 30.64C119.942 31.0667 121.137 31.664 122.225 32.432C123.185 31.8773 124.315 31.4187 125.617 31.056C126.939 30.6933 128.411 30.512 130.033 30.512C130.139 30.512 130.225 30.512 130.289 30.512C130.374 30.512 130.459 30.512 130.545 30.512L129.841 34.352C129.585 34.352 129.339 34.352 129.105 34.352C128.87 34.352 128.625 34.352 128.369 34.352C128.155 34.352 127.665 34.384 126.897 34.448C126.129 34.512 125.425 34.6293 124.785 34.8C125.659 35.824 126.331 36.976 126.801 38.256C127.291 39.5147 127.537 40.8373 127.537 42.224C127.537 44.6133 127.014 46.7573 125.969 48.656C124.945 50.5333 123.462 52.0267 121.521 53.136C119.579 54.224 117.254 54.768 114.545 54.768C113.777 54.768 113.041 54.7253 112.337 54.64C111.633 54.5333 110.961 54.384 110.321 54.192C109.339 54.512 108.849 55.0667 108.849 55.856C108.849 56.3253 109.126 56.7413 109.681 57.104C110.235 57.4453 111.131 57.712 112.369 57.904L120.753 59.248C124.145 59.7813 126.758 60.7627 128.593 62.192C130.449 63.6213 131.377 65.648 131.377 68.272C131.377 70.448 130.737 72.2507 129.457 73.68C128.198 75.1307 126.406 76.208 124.081 76.912C121.755 77.6373 119.025 78 115.889 78ZM116.401 72.88C119.345 72.88 121.606 72.496 123.185 71.728C124.763 70.9813 125.553 69.872 125.553 68.4C125.553 67.248 125.051 66.3413 124.049 65.68C123.067 65.0187 121.649 64.5173 119.793 64.176L110.865 62.672C109.691 63.184 108.667 63.8667 107.793 64.72C106.918 65.5947 106.481 66.608 106.481 67.76C106.481 69.552 107.377 70.8533 109.169 71.664C110.982 72.4747 113.393 72.88 116.401 72.88ZM114.545 50.16C116.977 50.16 118.833 49.4347 120.113 47.984C121.393 46.512 122.033 44.6133 122.033 42.288C122.033 40.048 121.393 38.2133 120.113 36.784C118.833 35.3333 116.977 34.608 114.545 34.608C112.113 34.608 110.267 35.3333 109.009 36.784C107.75 38.2133 107.121 40.048 107.121 42.288C107.121 44.6133 107.75 46.512 109.009 47.984C110.267 49.4347 112.113 50.16 114.545 50.16ZM135.028 62V14H140.852V36.08L138.804 35.952C140.276 34.096 141.854 32.6453 143.54 31.6C145.246 30.5333 147.422 30 150.068 30C152.777 30 155.038 30.608 156.852 31.824C158.665 33.04 160.02 34.736 160.916 36.912C161.833 39.088 162.292 41.6267 162.292 44.528V62H156.532V45.232C156.532 41.776 155.892 39.2267 154.612 37.584C153.353 35.9413 151.412 35.12 148.788 35.12C146.804 35.12 145.044 35.6533 143.508 36.72C141.993 37.7867 140.788 39.216 139.892 41.008L140.852 37.488V62H135.028ZM180.095 62.64C178.111 62.64 176.522 62.2773 175.327 61.552C174.132 60.8267 173.258 59.8987 172.703 58.768C172.17 57.616 171.903 56.4107 171.903 55.152V35.12H166.527L167.039 30.64H171.903V22.896L177.663 22.32V30.64H185.919V35.12H177.663V51.632C177.663 53.6373 177.78 55.088 178.015 55.984C178.25 56.88 178.826 57.4453 179.743 57.68C180.682 57.9147 182.186 58.032 184.255 58.032H185.727L185.279 62.64H180.095ZM216.25 49.904H197.05V44.4H216.25V49.904ZM205.753 23.152H207.546L193.786 62H187.386L203.45 17.2H209.85L225.914 62H219.514L205.753 23.152ZM231.495 62V17.2H237.575V62H231.495Z" fill="#1E1E1E"/>
<path fill-rule="evenodd" clip-rule="evenodd" d="M285.147 15.7799C286.045 13.0161 289.955 13.0161 290.853 15.7799L294.512 27.0378C294.913 28.2738 296.065 29.1106 297.365 29.1106L309.202 29.1111C312.108 29.1112 313.316 32.8299 310.965 34.5381L301.389 41.4963C300.338 42.2602 299.898 43.6142 300.299 44.8502L303.957 56.1084C304.855 58.8723 301.691 61.1705 299.34 59.4625L289.763 52.505C288.712 51.7411 287.288 51.7411 286.237 52.505L276.66 59.4625C274.309 61.1705 271.145 58.8723 272.043 56.1084L275.701 44.8502C276.102 43.6142 275.662 42.2602 274.611 41.4963L265.035 34.5381C262.684 32.8299 263.892 29.1112 266.798 29.1111L278.635 29.1106C279.935 29.1106 281.087 28.2738 281.488 27.0378L285.147 15.7799ZM309.782 17.6415C310.62 18.3603 310.717 19.6229 309.999 20.4616L306.159 24.9416C305.44 25.7802 304.177 25.8773 303.338 25.1585C302.5 24.4397 302.403 23.1771 303.121 22.3384L306.961 17.8584C307.68 17.0198 308.943 16.9226 309.782 17.6415ZM266.531 48.2041C267.463 47.6109 267.738 46.3746 267.144 45.4429C266.551 44.5112 265.315 44.2368 264.383 44.83L259.406 47.9992C258.474 48.5924 258.2 49.8287 258.793 50.7604C259.386 51.6921 260.622 51.9665 261.554 51.3733L266.531 48.2041ZM317.064 51.4004C317.658 50.4687 317.383 49.2324 316.451 48.6392L311.474 45.47C310.542 44.8768 309.306 45.1512 308.713 46.0829C308.12 47.0146 308.394 48.2509 309.326 48.8441L314.303 52.0133C315.235 52.6065 316.471 52.3321 317.064 51.4004ZM264.526 18.7641C263.594 18.1709 263.32 16.9346 263.913 16.0029C264.506 15.0712 265.742 14.7968 266.674 15.39L271.651 18.5592C272.583 19.1524 272.857 20.3887 272.264 21.3204C271.671 22.2521 270.435 22.5265 269.503 21.9333L264.526 18.7641Z" fill="url(#paint0_linear_6_26)"/>
<defs>
<linearGradient id="paint0_linear_6_26" x1="287.929" y1="13.7071" x2="287.929" y2="52" gradientUnits="userSpaceOnUse">
<stop stop-color="#378DE1"/>
<stop offset="0.5" stop-color="#4BA3D8"/>
<stop offset="1" stop-color="#C8A2C8"/>
</linearGradient>
</defs>
</svg>
